<?xml version="1.0" encoding="UTF-8"?>
<!-- Generated by Pixelmator Pro 3.7.1 -->
<svg width="5428" height="1447" viewBox="0 0 5428 1447" xmlns="http://www.w3.org/2000/svg">
    <path id="wren" fill="#d85a30" stroke="none" d="M 175 3 C 175.852066 3.15979 176.704147 3.319702 177.582031 3.484375 C 196.100555 7.912109 211.723053 24.911987 221.5625 40.25 C 227.578903 50.936523 231.002274 63.192749 234.464844 74.90625 C 236.256134 80.949097 238.295258 86.904663 240.3125 92.875 C 244.696991 105.915894 248.902771 119.010986 253.0625 132.125 C 253.515854 133.554077 253.515854 133.554077 253.978363 135.011963 C 255.173157 138.778809 256.367615 142.545898 257.561462 146.31311 C 262.200836 160.949951 266.907166 175.565186 271.652344 190.167969 C 272.622437 193.153564 273.592499 196.139282 274.5625 199.125 C 274.808716 199.882813 275.054932 200.640503 275.308624 201.421265 C 280.285034 216.742432 285.194946 232.084595 290.098419 247.429199 C 294.813904 262.184814 299.552307 276.932373 304.331299 291.66748 C 307.320862 300.886963 310.276672 310.116821 313.218018 319.351807 C 315.316833 325.921265 317.485504 332.464478 319.6875 339 C 321.973816 345.794189 324.110229 352.609863 326.093262 359.498291 C 327.735413 365.177002 329.50708 370.808838 331.3125 376.4375 C 333.845276 384.338379 336.321045 392.25415 338.75 400.1875 C 341.819214 410.188232 344.904358 420.18396 348.023071 430.169312 C 348.501648 431.703735 348.978821 433.238525 349.454468 434.773804 C 351.758789 442.207642 354.119232 449.547913 357.111816 456.740479 C 358.344543 459.876465 359.265076 463.077026 360.200195 466.312012 C 361.776489 471.609619 363.605408 476.827026 365.375 482.0625 C 368.072205 490.099121 370.710114 498.131958 373.046387 506.280762 C 374.921265 512.800903 376.904114 519.286987 378.907471 525.768616 C 379.479034 527.619629 380.04718 529.47168 380.615234 531.32373 C 382.485291 537.361694 384.453979 543.338684 386.609375 549.28125 C 388.585999 554.742554 390.256042 560.203918 391.75 565.8125 C 396.30191 582.163208 401.930298 598.14679 409.1875 613.5 C 409.579041 614.329529 409.970612 615.158997 410.374023 616.013672 C 413.139801 621.674622 416.393555 626.84021 420 632 C 420.432739 632.632141 420.865448 633.264221 421.311279 633.915527 C 433.099915 650.94989 447.683838 665.611267 465 677 C 466.063477 677.71283 467.126953 678.42572 468.222656 679.160156 C 488.891693 692.452881 511.816376 700.285767 536 704 C 536.722168 704.117126 537.444397 704.234314 538.188477 704.35498 C 555.123291 707.04425 572.386108 706.819885 589.375 704.75 C 590.275513 704.640808 591.176025 704.531677 592.10376 704.419189 C 607.38855 702.336304 622.005005 698.310669 636.5625 693.3125 C 638.134888 692.779907 639.70752 692.247864 641.280273 691.716309 C 657.642944 686.16687 673.908325 680.346008 690.066406 674.22583 C 693.659851 672.86676 697.262756 671.539734 700.878906 670.242188 C 712.263062 666.156006 723.546021 661.861694 734.79248 657.4104 C 743.259216 654.063599 751.751282 650.7901 760.260864 647.554016 C 778.95752 640.443604 797.568176 633.120422 816.156738 625.732422 C 817.826843 625.068787 819.497375 624.406311 821.167969 623.743896 C 822.050964 623.3927 822.93396 623.041504 823.84375 622.679688 C 824.929443 622.24823 824.929443 622.24823 826.037109 621.808105 C 839.158569 616.406128 844.894409 602.968994 851.818359 591.278076 C 854.96051 585.992737 858.394714 580.980896 862 576 C 862.748962 574.93396 863.497864 573.86792 864.269531 572.769531 C 870.232178 564.288269 876.439819 556.030334 883 548 C 884.035583 546.706299 884.035583 546.706299 885.092041 545.386475 C 893.240601 535.450256 902.268433 526.427612 911.370361 517.368896 C 914.067627 514.682373 916.753967 511.985352 919.439453 509.287109 C 921.179016 507.548828 922.91925 505.811157 924.660156 504.074219 C 925.448975 503.281372 926.237793 502.488464 927.050537 501.67157 C 932.40448 496.361755 938.047913 491.62262 944 487 C 945.42926 485.850342 946.85675 484.698486 948.28125 483.542969 C 957.824463 475.914673 967.623779 469.299683 978.149902 463.111816 C 980.455994 461.725952 982.668518 460.226074 984.875 458.6875 C 988.923401 455.936462 993.191711 453.82019 997.59375 451.691406 C 1000.048523 450.472473 1002.446228 449.224243 1004.84375 447.902344 C 1030.763672 433.643066 1059.123047 424.952759 1088 419 C 1088.810547 418.831299 1089.620972 418.662598 1090.456055 418.48877 C 1095.284668 417.503662 1100.120605 416.688477 1105 416 C 1105.700684 415.896973 1106.401611 415.794067 1107.123535 415.687988 C 1139.156128 411.204956 1175.714355 411.680542 1207 420 C 1209.329956 420.515625 1211.66272 421.018799 1214 421.5 C 1226.120972 424.085938 1237.50647 427.381836 1249 432 C 1249.795776 432.317139 1250.591675 432.634216 1251.411621 432.960938 C 1277.841797 443.588623 1302.041992 457.862183 1324 476 C 1324.566406 476.463379 1325.132813 476.92688 1325.716309 477.404297 C 1339.088379 488.391357 1351.310303 500.370728 1362 514 C 1363.457642 515.729675 1364.916016 517.458862 1366.375 519.1875 C 1376.694214 531.797852 1386.168457 545.871887 1393.347656 560.492188 C 1396.130005 564.715027 1399.207153 567.480652 1404.101563 568.898438 C 1405.264282 569.055725 1406.427002 569.212952 1407.625 569.375 C 1414.924561 570.529053 1422.028687 572.170715 1429.1875 574 C 1431.596191 574.61261 1434.005005 575.224548 1436.414063 575.835938 C 1437.065552 576.001404 1437.717041 576.166931 1438.388306 576.337402 C 1444.300293 577.833923 1450.223145 579.283936 1456.148438 580.726563 C 1457.616089 581.083984 1457.616089 581.083984 1459.113403 581.448669 C 1463.052734 582.407471 1466.992065 583.365479 1470.932251 584.320801 C 1483.660278 587.407776 1496.347046 590.617981 1509 594 C 1509 594.659973 1509 595.320007 1509 596 C 1496.1427 600.505554 1483.110229 604.366028 1470.034668 608.17627 C 1461.080444 610.787598 1452.154297 613.471985 1443.25 616.25 C 1434.390503 619.012634 1425.491699 621.529419 1416.523193 623.911865 C 1409.183594 625.887085 1402.103882 628.30249 1395 631 C 1394.01001 631.330017 1393.02002 631.659973 1392 632 C 1390.945557 634.231934 1390.945557 634.231934 1390 637 C 1388.892334 639.260681 1387.7677 641.507324 1386.625 643.75 C 1376.675293 663.528259 1367.326294 683.479492 1359 704 C 1358.451294 705.352051 1358.451294 705.352051 1357.891602 706.731445 C 1349.578247 727.424988 1342.707153 748.697266 1337.638184 770.414307 C 1336.856812 773.580139 1335.980225 776.715942 1335.113281 779.859375 C 1332.645386 788.963867 1330.797119 798.180847 1329 807.4375 C 1328.826416 808.327209 1328.65271 809.216858 1328.473877 810.133484 C 1325.197144 827.026978 1322.761108 843.882019 1321 861 C 1320.889648 862.00531 1320.779297 863.01062 1320.665527 864.046387 C 1318.965942 879.70166 1318.623291 895.386414 1318.341064 911.119141 C 1318.20813 918.266357 1318.071533 925.326233 1317.234131 932.431641 C 1316.72998 937.961426 1316.730713 943.533386 1316.612427 949.082947 C 1316.124023 970.903687 1313.912231 992.091797 1310.523438 1013.661621 C 1310.026367 1016.831543 1309.544067 1020.003479 1309.0625 1023.175781 C 1303.37561 1059.814331 1292.464722 1095.512329 1279 1130 C 1278.447021 1131.41687 1278.447021 1131.41687 1277.882813 1132.862305 C 1273.925659 1142.878052 1269.374878 1152.421997 1264.222656 1161.875 C 1262.017578 1165.927124 1259.969482 1170.046631 1257.9375 1174.1875 C 1254.81189 1180.520996 1251.424561 1186.651245 1247.871094 1192.753906 C 1246.160034 1195.72229 1244.538818 1198.721436 1242.9375 1201.75 C 1240.545654 1206.167114 1237.839966 1210.212646 1234.90625 1214.285156 C 1232.733765 1217.379272 1230.70813 1220.556152 1228.6875 1223.75 C 1219.505127 1238.165527 1209.024902 1251.286011 1197.956543 1264.291748 C 1194.717407 1268.111572 1191.615601 1272.017822 1188.5625 1275.988281 C 1186.142944 1279.103394 1183.663818 1282.088379 1181 1285 C 1180.340088 1285 1179.679932 1285 1179 1285 C 1178.340088 1286.319946 1177.679932 1287.640015 1177 1289 C 1176.340088 1289 1175.679932 1289 1175 1289 C 1174.753906 1289.571289 1174.507813 1290.142578 1174.254395 1290.731201 C 1172.789917 1293.379883 1171.075684 1295.16687 1168.929688 1297.300781 C 1168.11499 1298.113525 1167.300293 1298.92627 1166.460938 1299.763672 C 1165.607666 1300.604736 1164.75415 1301.445923 1163.875 1302.3125 C 1163.044922 1303.141968 1162.2146 1303.971558 1161.359375 1304.826172 C 1156.944458 1309.209961 1152.454712 1313.447998 1147.737793 1317.505127 C 1145.491699 1319.437256 1143.310547 1321.437256 1141.125 1323.4375 C 1132.186768 1331.491455 1122.556396 1338.703125 1113 1346 C 1112.291016 1346.545288 1111.582031 1347.090576 1110.851563 1347.652344 C 1105.761597 1351.528931 1100.498535 1355.151245 1095.226563 1358.773438 C 1092.465576 1360.678711 1089.730713 1362.614502 1087 1364.5625 C 1063.830933 1380.747559 1037.914429 1394.769409 1012 1406 C 1011.342407 1406.287598 1010.684814 1406.575195 1010.007324 1406.871582 C 983.297791 1418.514526 956.29071 1427.784058 927.908691 1434.327148 C 925.263245 1434.939087 922.621216 1435.563354 919.980469 1436.195313 C 909.262451 1438.75415 898.612671 1441.036377 887.6875 1442.5 C 886.739624 1442.627441 885.791748 1442.754883 884.815186 1442.88623 C 878.32428 1443.73877 871.828064 1444.488525 865.3125 1445.125 C 864.177856 1445.238159 864.177856 1445.238159 863.020264 1445.353516 C 846.938904 1446.840576 830.828552 1447.206421 814.6875 1447.1875 C 813.721436 1447.18689 812.755371 1447.186279 811.76001 1447.185669 C 773.337708 1447.121216 736.398315 1444.374512 699 1435 C 697.063293 1434.525024 695.126587 1434.050049 693.189758 1433.575439 C 678.664063 1430.00293 664.379028 1426.109375 650.353516 1420.863281 C 647.846558 1419.943726 645.325806 1419.07605 642.796875 1418.21875 C 633.947632 1415.216675 625.341675 1412.07251 616.941895 1407.944336 C 614.605469 1406.808105 612.254395 1405.705078 609.902344 1404.601563 C 585.40271 1393.069946 560.965454 1380.961548 539 1365 C 537.417969 1363.905396 535.835815 1362.811035 534.25 1361.721924 C 507.77655 1343.532959 482.845306 1323.24231 460.196533 1300.457275 C 458.019409 1298.269165 455.831482 1296.092285 453.642578 1293.916016 C 452.251953 1292.524048 450.861969 1291.13147 449.472656 1289.738281 C 448.819763 1289.089478 448.16684 1288.440552 447.494141 1287.772095 C 446.901917 1287.173462 446.309662 1286.574951 445.699463 1285.958252 C 444.914612 1285.171021 444.914612 1285.171021 444.113892 1284.36792 C 443 1283 443 1283 443 1281 C 442.01001 1280.670044 441.019989 1280.339966 440 1280 C 438.225769 1277.930542 436.572479 1275.862183 434.9375 1273.6875 C 433.949463 1272.399902 432.959839 1271.113403 431.96875 1269.828125 C 431.471161 1269.181641 430.973572 1268.535156 430.460938 1267.869141 C 428.350159 1265.168579 426.14978 1262.555786 423.9375 1259.9375 C 415.852966 1250.302734 408.256592 1240.272095 401 1230 C 400.481812 1229.292358 399.963593 1228.584595 399.429688 1227.855469 C 396.088898 1223.016113 395.1492 1218.859741 395 1213 C 402.979492 1209.010254 411.510071 1211.512085 419.8125 1213.1875 C 430.839905 1215.319336 441.881287 1217.112671 453 1218.6875 C 453.749084 1218.793701 454.498169 1218.899902 455.269958 1219.009277 C 465.387024 1220.433716 475.508484 1221.704956 485.683594 1222.640625 C 489 1223 489 1223 490.953735 1223.492432 C 493.003784 1224.000977 494.956055 1224.271729 497.056641 1224.480713 C 497.860535 1224.560669 498.664398 1224.640625 499.492645 1224.723145 C 526.243164 1227.229492 552.77417 1228.381958 579.625 1228.3125 C 580.343872 1228.311157 581.062744 1228.309814 581.803467 1228.308472 C 596.611572 1228.279175 611.411926 1228.103271 626.210938 1227.542969 C 627.237061 1227.505005 628.263184 1227.466919 629.320435 1227.427856 C 630.264526 1227.387451 631.208496 1227.347046 632.181152 1227.30542 C 632.996277 1227.270752 633.811401 1227.236084 634.651245 1227.200317 C 637.158203 1226.98645 639.53894 1226.514648 642 1226 C 644.01178 1225.815063 646.026733 1225.662598 648.042969 1225.535156 C 649.19989 1225.457153 650.356812 1225.37915 651.548828 1225.298828 C 653.954895 1225.142578 656.361145 1224.988892 658.767578 1224.837891 C 664.836792 1224.424316 670.664429 1223.800171 676.606689 1222.497314 C 680.868591 1221.611694 685.184692 1221.115601 689.5 1220.5625 C 696.555786 1219.624756 703.599854 1218.646729 710.625 1217.5 C 711.297241 1217.393677 711.969482 1217.287476 712.662109 1217.177979 C 717.754883 1216.327759 722.722839 1215.104492 727.723633 1213.825684 C 731.121033 1212.969482 734.528381 1212.17041 737.941406 1211.378906 C 752.733643 1207.885254 767.193359 1203.845581 781.5625 1198.875 C 782.279968 1198.627563 782.997437 1198.380005 783.736572 1198.125 C 798.46283 1193.019043 812.781677 1187.317017 826.8125 1180.5 C 828.516968 1179.685913 828.516968 1179.685913 830.255859 1178.855469 C 836.323364 1175.924927 842.169983 1172.816772 847.906494 1169.281738 C 850.320862 1167.803589 852.796814 1166.484497 855.3125 1165.1875 C 861.223816 1161.987915 866.675415 1158.215332 872.140137 1154.319824 C 874.1698 1152.879517 876.210938 1151.456543 878.253906 1150.035156 C 900.702393 1134.382446 922.458801 1115.986816 939 1094 C 939.647095 1093.146606 940.294189 1092.293335 940.960938 1091.414063 C 945.771545 1084.930176 950.247986 1078.22876 954.6875 1071.488281 C 955.994812 1069.504639 957.318665 1067.547852 958.6875 1065.605469 C 969.232605 1050.618896 976.413757 1032.295166 982.75 1015.1875 C 983.01947 1014.460083 983.289001 1013.732605 983.56665 1012.983154 C 984.406006 1010.664185 985.210266 1008.336365 986 1006 C 986.319702 1005.057678 986.639404 1004.115417 986.96875 1003.144531 C 989.902771 994.094116 991.797485 984.967834 993.5 975.625 C 993.723938 974.407959 993.723938 974.407959 993.952454 973.16626 C 1002.750305 931.552002 1002.750305 931.552002 1000 890 C 983.528931 881.764465 950.752075 887.370056 933 890 C 930.497009 894.821289 930.719666 899.412964 930.726563 904.707031 C 930.709534 906.664307 930.69165 908.621582 930.672852 910.578857 C 930.665771 911.5979 930.658752 912.616943 930.651489 913.66687 C 930.504578 931.112915 930.09967 947.964905 926 965 C 925.705383 966.281982 925.705383 966.281982 925.404785 967.589844 C 923.046387 977.732727 919.966675 987.36322 916 997 C 915.560425 998.176941 915.12085 999.353821 914.667969 1000.566406 C 908.117432 1018.03833 898.247925 1034.041626 886.253906 1048.308594 C 884.815369 1050.026367 883.403259 1051.766846 882.027344 1053.535156 C 868.717102 1070.538452 852.620117 1084.40564 834.792969 1096.425781 C 831.729797 1098.491333 828.734924 1100.635132 825.75 1102.8125 C 821.360046 1105.906128 816.738525 1108.22937 811.902344 1110.546875 C 809.323853 1111.837891 806.977844 1113.245361 804.5625 1114.8125 C 765.378906 1138.733765 715.048584 1148.171875 670.256348 1154.526611 C 665.837646 1155.168945 661.428284 1155.867798 657.019287 1156.573486 C 644.972595 1158.275269 632.65918 1158.257446 620.517578 1158.607666 C 615.277466 1158.768188 610.08374 1158.952393 604.871094 1159.523438 C 597.109802 1160.290039 589.310669 1160.148804 581.519775 1160.130371 C 578.808044 1160.125 576.096497 1160.130371 573.384766 1160.136719 C 571.638062 1160.136108 569.891235 1160.134766 568.144531 1160.132813 C 566.945801 1160.135864 566.945801 1160.135864 565.722839 1160.138916 C 561.443359 1160.121338 557.338501 1159.835571 553.090271 1159.24707 C 549.008667 1158.764648 544.901733 1158.681641 540.796875 1158.535156 C 538.826782 1158.456665 536.85675 1158.377808 534.886719 1158.298828 C 531.821899 1158.179688 528.756958 1158.062744 525.691895 1157.950439 C 505.344391 1157.195068 505.344391 1157.195068 496.46582 1155.470459 C 492.504883 1154.714722 488.511627 1154.375 484.5 1154 C 478.381561 1153.390503 472.347931 1152.640381 466.292969 1151.554688 C 462.888885 1150.981323 459.480713 1150.508789 456.060303 1150.04541 C 442.283203 1148.165405 428.650574 1145.63269 415 1143 C 413.732544 1142.758423 412.465057 1142.516968 411.15918 1142.268066 C 396.927673 1139.548462 382.875671 1136.678589 368.979492 1132.565918 C 365.592651 1131.597656 362.171814 1130.771729 358.75 1129.9375 C 304.389282 1116.531494 250.742126 1096.678711 201 1071 C 200.329849 1070.657959 199.659698 1070.315796 198.969238 1069.963379 C 156.876663 1048.440186 156.876663 1048.440186 152.875 1036.699219 C 152.074875 1030.505371 152.644745 1025.799072 156.460938 1020.789063 C 156.968826 1020.198669 157.476715 1019.608276 158 1019 C 158.528519 1018.327087 159.057037 1017.654236 159.601563 1016.960938 C 162.397766 1013.50354 162.397766 1013.50354 164 1012 C 164.660004 1012 165.320007 1012 166 1012 C 166.660004 1010.679993 167.320007 1009.359985 168 1008 C 168.660004 1008 169.320007 1008 170 1008 C 170.340317 1007.133728 170.340317 1007.133728 170.6875 1006.25 C 172.34761 1003.404114 174.391876 1002.001587 177 1000 C 177.742493 999.257507 178.485001 998.515015 179.25 997.75 C 194.613052 982.386963 194.613052 982.386963 202.808594 981.664063 C 207.089966 981.784668 210.344772 983.238098 214 985.375 C 214.638092 985.730774 215.276169 986.086548 215.933594 986.453125 C 221.407974 989.547791 226.712585 992.915283 232.021973 996.282227 C 244.430603 1004.110107 257.505127 1010.287292 271 1016 C 271.651123 1016.281677 272.302277 1016.563293 272.973145 1016.853516 C 295.379883 1026.475342 319.485626 1032.945068 343.1875 1038.5 C 344.20517 1038.739502 344.20517 1038.739502 345.243408 1038.983887 C 355.436646 1041.363525 365.683289 1043.249634 376 1045 C 377.942688 1045.342407 379.885437 1045.684937 381.828125 1046.027344 C 393.53772 1048.023682 405.281586 1049.606079 417.084595 1050.924561 C 418.607788 1051.094849 420.130676 1051.2677 421.653198 1051.443848 C 444.114441 1054.019531 466.710907 1054.170166 489.295166 1054.130371 C 493.015167 1054.124878 496.735077 1054.130371 500.455078 1054.136719 C 502.833344 1054.136108 505.211578 1054.134766 507.589844 1054.132813 C 508.695862 1054.134888 509.80188 1054.136841 510.941376 1054.138916 C 511.958374 1054.135742 512.975342 1054.13269 514.023193 1054.129395 C 514.915161 1054.12854 515.807129 1054.127808 516.726196 1054.126953 C 519.166138 1054.090698 519.166138 1054.090698 522 1053 C 523.254272 1050.491333 523.126953 1048.781738 523.129395 1045.974609 C 523.132568 1044.925903 523.135742 1043.877197 523.138916 1042.796753 C 523.136963 1041.657227 523.134888 1040.517822 523.132813 1039.34375 C 523.133789 1038.171753 523.134766 1036.999634 523.135742 1035.792114 C 523.136353 1033.303833 523.134521 1030.81543 523.130371 1028.327148 C 523.125061 1024.543579 523.13031 1020.760132 523.136719 1016.976563 C 523.136047 1014.557312 523.134766 1012.138 523.132813 1009.71875 C 523.134827 1008.595459 523.136841 1007.472168 523.138916 1006.314819 C 523.119873 999.815552 522.79364 993.451965 522 987 C 521.197754 986.97937 520.395508 986.95874 519.568909 986.937561 C 511.86618 986.738464 504.163666 986.533081 496.461304 986.32135 C 492.505035 986.212769 488.548737 986.106323 484.592285 986.005371 C 464.675323 985.495422 444.860291 984.656311 425 983 C 424.046478 982.921265 423.092957 982.842468 422.110535 982.761353 C 408.583405 981.631165 395.336792 979.51001 382 977 C 381.144043 976.842712 380.288147 976.685486 379.40625 976.523438 C 360.770447 973.087463 342.613159 968.338379 324.625 962.375 C 322.940735 961.816772 322.940735 961.816772 321.222412 961.247314 C 312.149536 958.17572 303.594025 954.46106 295.125 950 C 294.475311 949.669983 293.825623 949.340027 293.15625 949 C 289.614685 947.13446 286.805664 945.643921 285 942 C 284.566406 938.722656 284.566406 938.722656 284.5625 935.0625 C 284.533508 933.254578 284.533508 933.254578 284.503906 931.410156 C 285.096619 927.335938 286.082275 925.864136 289 923 C 291.742188 921.042969 291.742188 921.042969 294.875 919.1875 C 295.445251 918.848389 296.015503 918.509277 296.603027 918.159912 C 297.802246 917.44989 299.004303 916.744629 300.208984 916.043945 C 301.912964 915.05072 303.605286 914.037598 305.296875 913.023438 C 313.393738 908.252747 321.732758 904.193359 330.25 900.230469 C 334.666992 898.171448 339.026733 896.012268 343.375 893.8125 C 349.157349 890.895325 354.983704 888.106079 360.878906 885.421875 C 362.933777 884.485718 364.983459 883.538086 367.027344 882.578125 C 375.746826 878.487793 384.598175 874.743652 393.489746 871.04541 C 395.259521 870.308411 397.027954 869.568176 398.79541 868.825684 C 406.242981 865.703247 413.731873 862.698242 421.25 859.75 C 422.463654 859.273987 423.677307 858.798035 424.927734 858.307617 C 444.759857 850.546143 464.71701 843.198059 484.878906 836.339844 C 486.419281 835.809937 487.959656 835.279968 489.5 834.75 C 490.550781 834.398682 490.550781 834.398682 491.622803 834.040283 C 496.836487 832.34198 496.836487 832.34198 501 829 C 501.725525 823.316711 500.239624 818.326782 498.625 812.9375 C 498.366058 812.057129 498.107117 811.176819 497.840332 810.269775 C 495.508698 802.469543 493.052216 794.705688 490.532898 786.964172 C 490.096313 785.619202 489.663361 784.273071 489.234192 782.92572 C 488.624237 781.018127 487.996002 779.116333 487.367188 777.214844 C 487.007385 776.11261 486.647583 775.010376 486.276855 773.874756 C 484.918945 770.817505 483.576416 769.110107 481 767 C 472.728333 766.212952 462.885406 771.387878 455.199219 774.160156 C 450.607208 775.80719 445.979645 777.270996 441.3125 778.6875 C 428.607727 782.595093 416.170532 787.310791 403.703125 791.907715 C 400.105164 793.23291 396.502075 794.538757 392.882813 795.804688 C 366.587585 805.063538 340.933411 816.964478 315.699219 828.773438 C 310.143311 831.298096 307.144867 832.426514 301 831 C 297.630646 829.494141 296.284821 828.731201 294.925781 825.242188 C 293.539398 817.63031 293.539398 817.63031 293 814 C 292.900909 813.335999 292.801819 812.671936 292.699707 811.987793 C 290.549896 796.96814 289.933167 781.837891 289.964844 766.679688 C 289.957153 763.735535 289.947205 760.791321 289.936768 757.847168 C 289.937256 755.862122 289.950317 753.877014 289.97583 751.89209 C 290.138641 737.622437 288.223602 727.342773 281 715 C 280.206665 713.582397 279.416046 712.163269 278.628174 710.742676 C 277.180481 708.143677 275.711517 705.55835 274.226563 702.980469 C 271.953156 698.977844 269.89975 694.882751 267.875 690.75 C 265.573822 686.056885 263.1828 681.491577 260.5 677 C 257.415344 671.830933 254.711884 666.537415 252.055176 661.141602 C 249.746918 656.462708 247.349228 651.84314 244.875 647.25 C 242.559479 642.947693 240.290741 638.630127 238.125 634.25 C 235.545761 629.035461 232.846741 623.890991 230.125 618.75 C 227.034088 612.908081 223.993973 607.048523 221.0625 601.125 C 217.965668 594.867859 214.752869 588.677368 211.5 582.5 C 208.312851 576.446106 205.1595 570.381897 202.125 564.25 C 194.868973 549.619629 187.41629 535.067383 179.310547 520.887939 C 174.76741 512.905396 170.581787 504.733154 166.34668 496.584473 C 164.308716 492.67334 162.247345 488.774658 160.1875 484.875 C 157.290527 479.387573 154.421158 473.886719 151.578125 468.371094 C 145.938751 457.434082 140.272018 446.551392 134.155029 435.873779 C 132.061615 432.15918 130.14212 428.374756 128.257813 424.550781 C 127.555786 423.136963 126.853127 421.723511 126.149902 420.310303 C 125.793854 419.594727 125.43782 418.879272 125.070984 418.14209 C 122.013954 412.02771 118.879601 405.952393 115.75 399.875 C 115.382828 399.161377 115.015656 398.447876 114.63736 397.712646 C 109.632599 387.995117 104.528381 378.343018 99.251465 368.769775 C 94.142548 359.489502 89.27462 350.087036 84.396484 340.684082 C 82.322296 336.697388 80.223892 332.723633 78.125 328.75 C 74.778984 322.410034 71.470436 316.051514 68.179443 309.682861 C 58.315132 290.597168 48.249283 271.619141 38.078125 252.695313 C 31.320969 240.121948 24.618271 227.525757 18.086426 214.833496 C 15.267029 209.355469 12.419373 203.897827 9.492188 198.476563 C 8.935547 197.437378 8.378922 196.398071 7.80542 195.327393 C 6.7612 193.381592 5.707352 191.440918 4.641846 189.506592 C 1.398254 183.431763 -0.92627 178.246338 0.601563 171.242188 C 0.939301 170.46106 1.277039 169.67981 1.625 168.875 C 1.947266 168.088623 2.269531 167.302368 2.601563 166.492188 C 6.226135 160.032715 10.051895 156.892822 16.6875 153.9375 C 17.427902 153.600952 18.168304 153.264404 18.931152 152.917725 C 34.788696 145.958984 52.281891 140.802612 69.097656 146.992188 C 76.32888 151.994629 79.631035 160.973145 83 168.8125 C 83.691139 170.399902 83.691139 170.399902 84.39624 172.019287 C 89.179092 183.155029 93.522408 194.460815 97.874756 205.769775 C 101.52803 215.25769 105.291679 224.683472 109.244629 234.051514 C 112.721115 242.294556 116.085205 250.580933 119.4375 258.875 C 123.496231 268.91333 127.627945 278.914429 131.875 288.875 C 136.713043 300.232178 141.2677 311.669067 145.582031 323.234375 C 145.84201 323.930908 146.102005 324.627563 146.369873 325.345215 C 147.065704 327.215576 147.755783 329.088135 148.445313 330.960938 C 150.073944 335.276611 151.869324 339.520874 153.652832 343.774414 C 155.931366 349.22998 158.149261 354.710205 160.375 360.1875 C 161.343567 362.566406 162.312317 364.945313 163.28125 367.324219 C 165.872055 373.685547 165.872055 373.685547 167.105469 376.717285 C 170.168198 384.239502 173.28685 391.712036 176.695313 399.085938 C 179.304504 404.913696 181.673279 410.844482 184.083984 416.756348 C 185.58992 420.444946 187.107697 424.128601 188.625 427.8125 C 189.02211 428.778564 189.02211 428.778564 189.427246 429.76416 C 191.066025 433.747498 192.71907 437.724609 194.378906 441.699219 C 197.055832 448.11969 199.689697 454.557251 202.3125 461 C 202.788162 462.167603 203.263824 463.335144 203.753906 464.538086 C 207.01828 472.560791 210.255051 480.594116 213.450439 488.644531 C 214.294022 490.765625 215.145874 492.883179 216 495 C 216.268127 495.679993 216.536255 496.359985 216.8125 497.060547 C 218.098221 500.708618 218.098221 500.708618 221 503 C 229.262421 503.233582 236.295456 500.20874 243.75 497 C 246.131393 495.999756 248.512909 494.999756 250.894531 494 C 252.672714 493.245911 252.672714 493.245911 254.486816 492.476563 C 257.816467 491.077148 261.158539 489.716919 264.511719 488.375 C 265.514282 487.972778 266.516846 487.570618 267.549805 487.15625 C 269.430725 486.403076 271.312805 485.652954 273.196289 484.90625 C 274.03772 484.565918 274.87915 484.225586 275.746094 483.875 C 276.474976 483.583679 277.203857 483.292358 277.954834 482.992188 C 280.206055 481.900024 282.047485 480.556946 284 479 C 283.468994 473.520752 282.48349 468.929077 280.5 463.75 C 280.241547 463.074524 279.983093 462.399048 279.716797 461.703125 C 277.201965 455.261353 274.360352 448.965454 271.423828 442.706055 C 268.787994 437.017334 266.547974 431.215576 264.376526 425.338013 C 261.523499 417.646729 258.394043 410.075928 255.25 402.5 C 254.633087 401.00769 254.016388 399.515381 253.399902 398.022949 C 249.827972 389.38208 246.23024 380.752075 242.625 372.125 C 238.672821 362.66687 234.831757 353.168701 231.049316 343.641602 C 225.60939 329.946777 220.12561 316.270264 214.5625 302.625 C 214.10585 301.504761 213.6492 300.384644 213.178711 299.230469 C 210.86261 293.553345 208.540344 287.878784 206.210938 282.207031 C 201.127365 269.80835 196.154037 257.380615 191.435303 244.837646 C 189.215805 238.97998 186.800522 233.274048 184.169434 227.589844 C 182.133911 223.081909 180.423218 218.456055 178.683594 213.828125 C 177.121948 209.731567 175.44223 205.729858 173.601563 201.75 C 170.770172 195.595703 168.316757 189.317017 165.875 183 C 164.908951 180.520264 163.941971 178.041016 162.972656 175.5625 C 162.727402 174.935181 162.482162 174.307861 162.229477 173.661621 C 159.651184 167.083008 156.988281 160.539551 154.3125 154 C 150.145447 143.813965 146.02478 133.611084 141.95166 123.387207 C 140.304993 119.256592 138.6521 115.128418 137 111 C 136.333313 109.333374 135.666641 107.666626 135 106 C 134.669998 105.175049 134.339996 104.349976 134 103.5 C 133 101 132 98.5 131 96 C 130.670242 95.175659 130.340485 94.351318 130.000732 93.501953 C 129.331512 91.828857 128.662399 90.15564 127.993408 88.482422 C 126.366714 84.414307 124.738327 80.346924 123.105469 76.28125 C 121.062057 71.190796 119.029495 66.096069 117 61 C 116.556885 59.889282 116.11377 58.778564 115.657227 57.634277 C 100.25296 18.965942 100.25296 18.965942 101 12 C 106.455269 5.022095 118.695114 4.009644 126.875 2.75 C 127.955643 2.581665 129.03627 2.413208 130.149658 2.239746 C 145.105164 0.075806 160.154953 -0.027222 175 3 Z M 1182.21875 548.136719 C 1174.523804 558.943604 1172.42334 571.938416 1174.460938 584.941406 C 1176.931641 595.158142 1182.081787 604.182434 1191 610 C 1201.972412 616.175903 1214.700073 617.000793 1226.824219 614.078125 C 1237.776245 610.160339 1245.39624 604.271179 1251 594 C 1256.200195 581.912231 1256.544434 570.415833 1252.253906 558.007813 C 1248.729858 549.554565 1243.721436 543.902161 1236 539 C 1234.979004 538.346436 1234.979004 538.346436 1233.9375 537.679688 C 1217.757568 529.416382 1193.644409 534.430908 1182.21875 548.136719 Z"/>
    <text id="wrenlo" xml:space="preserve" x="1740.6" y="1241" font-family="Heiti SC" font-size="1200" fill="#d85a30" letter-spacing="-36">wrenlo</text>
    <text id="text1" visibility="hidden" xml:space="preserve" x="3385.309" y="979" font-family="Heiti SC" font-size="473" fill="#d85a30" letter-spacing="-14.19">wrenlo</text>
</svg>
